# xmcd
#
# Track frame offsets:
#	150
#	18099
#	95225
#	133153
#	218811
#	262622
#
# Disc length: 3695 seconds
#
# Revision: 1
# Processed by: cddbd v1.5.1PL0 Copyright (c) Steve Scherf et al.
# Submitted via: CDex 1.50Beta5
#
DISCID=4b0e6d06
DTITLE=声優 - Bl裏話 Vol.5
DYEAR=1900
DGENRE=Books
TTITLE0=オープニング
TTITLE1=Boy's Loveについて思うこと
TTITLE2=共演の想い出〜エピソード〜新作の”放課後はスキャンダル
TTITLE3=プロデューサーへの質問
TTITLE4="放課後はスキャンダル
TTITLE5=エンディング
EXTD=
EXTT0=
EXTT1=
EXTT2=
EXTT3=
EXTT4=
EXTT5=
PLAYORDER=
